<svg id="Layer_1" data-name="Layer 1" xmlns="http://www.w3.org/2000/svg" xmlns:xlink="http://www.w3.org/1999/xlink" viewBox="0 0 104.58 103.12"><defs><style>.cls-1{fill:url(#linear-gradient);}.cls-2{fill:url(#linear-gradient-2);}</style><linearGradient id="linear-gradient" x1="147.53" y1="268.95" x2="213.07" y2="268.95" gradientUnits="userSpaceOnUse"><stop offset="0" stop-color="#fff" stop-opacity="0"/><stop offset="1"/></linearGradient><linearGradient id="linear-gradient-2" x1="248.47" y1="368.33" x2="248.47" y2="305" xlink:href="#linear-gradient"/></defs><title>top right border</title><path d="M201.79,311.68c0.65-1,1.34-2,2-3.05,0.95-1.59,1.85-3.22,2.77-4.83l0,0c1.45-2.26,3.14-4.23,6-4.67a3,3,0,0,1,3.35,1.45,3.18,3.18,0,0,0,1.1,1.23c2.52,1.27,2.23,4.29,1.11,6.16a15.22,15.22,0,0,1-5.68,5c-1.74,1-3.53,2-5.27,3a6.3,6.3,0,0,0-1,.86l-0.74.29L203,318.44c-0.72-.89-0.31-1.41.28-2.09,1.37-1.59,2.86-2.89,5.24-3.06l-1.16-1.07a30.82,30.82,0,0,1,2.66-2.45,2.29,2.29,0,0,1,1.57-.11,3.29,3.29,0,0,0,2.62-.18l-2.86-.62-0.25-.67c0.92-.76,1.81-1.57,2.78-2.26a2.37,2.37,0,0,1,1.22-.15,4.68,4.68,0,0,0,1.28,0,1.17,1.17,0,0,0,.72-0.81,1.3,1.3,0,0,0-.69-1,3.68,3.68,0,0,1-2.4-2.44,1.2,1.2,0,0,0-.91-0.68,2.11,2.11,0,0,0-.83.82,0.28,0.28,0,0,0,0,.23c0.73,2.39-1.24,3.34-2.45,4.69-0.9-.55-1-0.87-1.12-2.76a3.83,3.83,0,0,0-.28,1.71,2.67,2.67,0,0,1-.88,3.5,10.44,10.44,0,0,0-1.49,1.82l-1-1.36c-0.22,2.89-2,4.61-4,6.2l-1.05-.43,0.64-1.78Z" transform="translate(-147.53 -265.21)"/><path d="M247.49,270c-0.49,2.8-1.27,5.46-3.31,7.35l2.56,2a18.46,18.46,0,0,0-1.8,1.09,1.51,1.51,0,0,0-.37.79c-0.26,1-1.1.8-1.75,0.81a23,23,0,0,1-2.5-.22c-0.23,0-.47,0-0.77,0l0.05,0.7-0.17-.31-6.9,3.33v0.4l-0.46-.6c0.91-1.83,1.74-3.57,2.64-5.28,0.38-.72-0.12-1.87,1.12-2.22a3.9,3.9,0,0,0,0-1.48,13.52,13.52,0,0,1-.19-1.9c0.05-.67-0.16-1.56,1.16-1.51,0.4,0,.83-1.11,1.37-1.88a2.65,2.65,0,0,1,1.87,2.35A12.52,12.52,0,0,1,247.49,270Z" transform="translate(-147.53 -265.21)"/><path d="M194.14,295.34l-2.47,2.24-0.29-1.35c-1-.09-2.16.13-2.81-0.93a21.6,21.6,0,0,0,1.53-1.78c0.24-.34-0.45-0.77.23-1.32a36.42,36.42,0,0,0,3.39-3.52l-1.47.07a2.11,2.11,0,0,1,1.47-2.37c1.19-.47,2.3-1.15,3.67-1.85L198,285a17.64,17.64,0,0,0-3,7.91,1.22,1.22,0,0,1-.37.65c-0.47.47-1,.89,0,1.38a1,1,0,0,1,.21.72c0.08,1.31.14,2.62,0.17,3.94,0,0.34-.18.68-0.19,1s0.08,0.82.11,1.24a9.89,9.89,0,0,1,.06,1.87c-0.21,1.59-.19,3.26-1.56,4.48a4.07,4.07,0,0,0-.13,1.15c-1.08,3.15-6.12,4.74-8.8,2.8a2.18,2.18,0,0,1-.38-3.48,14.19,14.19,0,0,1,1.95.58,4.12,4.12,0,0,1,1.11.9c0.36,0.36.66,0.78,1,1.17l0.11-.4c0.72-.23,1.45-0.44,2.17-0.69s1.43-.55,2.15-0.83l-0.12-.36h-2c0.28-1.49.27-2.86,2-3.66,0.89-.41,1.38-1.69,2.06-2.58l-0.25-.18-1.53,1.06L189.86,302a5.9,5.9,0,0,0,1.08-.94c0.18-.27.08-0.72,0.24-1a4.21,4.21,0,0,1,1.16-1.55A3.66,3.66,0,0,0,194.14,295.34Z" transform="translate(-147.53 -265.21)"/><path d="M225.35,328.74c-1.3-.63-1.48,0-2.85,1.58-0.3-.81-0.53-1.48-0.79-2.14-0.18-.48-0.4-0.94-0.6-1.41l-0.58-.13,2-2.17a2.87,2.87,0,0,0-2.93,1.72c-0.37.65-.65,1.66-1.82,1a1.24,1.24,0,0,0-.77.44,9.55,9.55,0,0,0-.83,1.17l-1.73-3,1.08-1.66c-1.13.32-2.29,0.65-2.69,1.73-0.65,1.78-2.09,1.93-3.67,2.19V326a2.51,2.51,0,0,0-1.13,2.3,4,4,0,0,1-.88,1.9c1,1.21,2.22,2.42,2.34,4.47-0.65.94-2.33,0.9-3.28-.36-1.48-2-1.09-5.7.83-7.61a3.64,3.64,0,0,1,1.66-1.3c1-.06,1.48-0.82,2.23-1a12.81,12.81,0,0,1,4.77-.84c2.05,0.21,4.09-.06,6.11.16a9.33,9.33,0,0,1,1.41.53,1.52,1.52,0,0,0,.87,0c0.74-.26,1.46-0.6,2.19-0.9,1.9-.79,3.84-1.51,5.69-2.4,0.73-.35,1.08-0.27,1.29.11-0.68,1.39-1.31,2.6-1.87,3.83a2.08,2.08,0,0,1-2.27,1.43v-1.58Z" transform="translate(-147.53 -265.21)"/><path class="cls-1" d="M147.53,266.55v-1.34h64v6.08l1.43,0.26,0.06,1.15h-2.78v-6.15H147.53Z" transform="translate(-147.53 -265.21)"/><path class="cls-2" d="M250.83,307.88h-6v-2.7c1.51-.68,1,0.72,1.37,1.39h5.89v61.7l-1.28.06V307.88Z" transform="translate(-147.53 -265.21)"/><path d="M228.95,304a14.92,14.92,0,0,1-.71-3.26,3.88,3.88,0,0,1,2.29-3.4c2.66-1.44,6.65-.22,8.19,1.91a2.47,2.47,0,0,1-2.43-.35c-2.59-1.72-5.53-1.8-7.22,1,1.27-.77,2.41-1.23,3.69-0.71,1.78,0.73,2.54,2.09,2.43,4.34a4.66,4.66,0,0,1-3.24,4c-3.77,1.13-7.55-1.83-7.7-6.09a10.63,10.63,0,0,1,.4-2.82,2.82,2.82,0,0,1,.88-0.88c0,1.43-.09,2.57,0,3.7a5,5,0,0,0,3.78,4.54,2.91,2.91,0,0,0,3.22-1,2.2,2.2,0,0,0,.31-2.91,1,1,0,0,1,0,.39c-0.26.66-.38,1.63-0.87,1.89a4.48,4.48,0,0,1-2.28,0,2.69,2.69,0,0,1-.81-0.39Z" transform="translate(-147.53 -265.21)"/><path d="M218.7,278.75c2.64,2.56,3.31,6.43,1.59,9a4.28,4.28,0,0,1-5.8,1.18,2.49,2.49,0,0,1-1-2.64c0.25-1.23,1.15-1.58,2.58-1.58a2.42,2.42,0,0,0-3,.45,2.92,2.92,0,0,0-1,3,5.34,5.34,0,0,0,6.71,4.09L220,292l0.07,1a16.28,16.28,0,0,1-2,.55,6.65,6.65,0,0,1-7.78-5.51,5.19,5.19,0,0,1,3.24-5.42,4,4,0,0,1,5.13,2.09c0.77,1.5.2,2.76-.75,3.94a3.75,3.75,0,0,0,2.3-4,8,8,0,0,0-1-3A3.16,3.16,0,0,1,218.7,278.75Z" transform="translate(-147.53 -265.21)"/><path d="M231.1,283.94a5.09,5.09,0,0,1,0-1.26,7,7,0,0,0-.82-5.18,31.38,31.38,0,0,1-2.21-4.89,5.64,5.64,0,0,1,1.65-6.12c1.42-1.31,4.43-.9,5.17.81a2.64,2.64,0,0,1-.2,2.08,1.85,1.85,0,0,1-1.64.46,2.91,2.91,0,0,1-1.12-.92,4.93,4.93,0,0,0,1.34-1.55c0.11-.68-0.94-1.08-1.92-0.79-2,.59-2.1,2.22-1.26,4.32a14.1,14.1,0,0,0,.83,1.55l1.6-1.85c0.44,1-.19,2.25,1.32,2.18a1.72,1.72,0,0,1,.31,1.07c-0.14,1-.4,1.92-0.62,2.93h0.83a5.37,5.37,0,0,1-.88,3.79c-0.66,1.13-1.39,2.21-2.09,3.32Z" transform="translate(-147.53 -265.21)"/><path d="M240.89,305.88a3.83,3.83,0,0,0,1,1.27,3.25,3.25,0,0,1,1.87,2.69,10.56,10.56,0,0,0,1.05,2.27l-1.46.32,2,2.59-0.91.69,2.31,1-0.69,1.09,3,1.07-2.3.92c-0.12,1.11-1.42.84-4.08-1.07l-0.5.86c-1.16-.78-1.5-1.62-1.76-3.67a2.18,2.18,0,0,1-.59-1,13,13,0,0,1,.74-3.08,2,2,0,0,0-.48-2.64,5.12,5.12,0,0,1-1.27-1.7,2.34,2.34,0,0,1,0-1.84c0.45-.69,1.19-0.37,1.77.12a1,1,0,0,0,.33.12Z" transform="translate(-147.53 -265.21)"/><path d="M248.89,285.81a1.54,1.54,0,0,1-1.47-1.44,1.24,1.24,0,0,1,.88-1.61,3.46,3.46,0,0,1,2.31.36c1.44,1.07,1.28,4.17-.13,5.36a6,6,0,0,1-6.71.86,30.83,30.83,0,0,1-3.41-1.73,6.83,6.83,0,0,0-5.14-1,2.79,2.79,0,0,1-1.47-.15c2.35-1,4-3.61,7.07-3.12l-0.18,1a0.4,0.4,0,0,0,.19.06,16.8,16.8,0,0,1,2.33-.84c0.61-.13,1.54-0.58,1.57.83,0,0.27,1.11.53,2,.92L245,286.85a21.5,21.5,0,0,0,2.37,1.13c1.86,0.65,3.1-.08,3.51-1.9a1.22,1.22,0,0,0-.83-1.69c-0.34-.06-0.81.68-1.22,1.05Z" transform="translate(-147.53 -265.21)"/><path d="M198.85,275.35l0.83-.61c-0.92-1.22-1.82-2.44-1.66-4.13l0.66,0.09,0.85-2.54,1,3.19,1-.78,1.09,2.51,0.6-1.07,2.65,2.21,0.17-1.45c1.17,0.4,2.32.79,3.46,1.2a1.45,1.45,0,0,1,.6.38c0.82,1,1.66,1.9,2.38,2.92a1.4,1.4,0,0,1,0,1.28,1.32,1.32,0,0,1-1.2.42,7.37,7.37,0,0,1-2.29-1.42c-1.11-1.1-1.45-1.19-2.89-.55a7.28,7.28,0,0,1-2.38.63c-0.4,0-1.31.39-1.28-.69a3.19,3.19,0,0,0-.85-0.13A3.35,3.35,0,0,1,198.85,275.35Z" transform="translate(-147.53 -265.21)"/><path d="M187,327c2,0.69,4.1-.41,6.26-1.55a8.66,8.66,0,0,0-.94,1.7,27.17,27.17,0,0,0-.77,3.55c-0.1.67,0.39,1.54-.83,1.69a2,2,0,0,0-.39.7c-0.31.47-.65,0.93-1.12,1.59l-0.56-1.48a9.63,9.63,0,0,1-5.46,2l2.09-5.39-1.23-.34Z" transform="translate(-147.53 -265.21)"/><path d="M196.33,325c-0.3,1.51-.68,3-0.85,4.44a1.34,1.34,0,0,0,1.45,1.62,2.79,2.79,0,0,1,1.25,1,5.27,5.27,0,0,1,.26.65c0.74,1,.75,1-0.25,2l2.37-.28c-0.11,1.44-1.65,2.21-3.5,1.67a4.54,4.54,0,0,1-3.25-4.27c-0.28-3.27,1-6,2.89-8.52a16.56,16.56,0,0,1,5-4.58l0.28,0.17a2.38,2.38,0,0,1-.35.72c-0.57.55-1.19,1.06-1.78,1.58a3.53,3.53,0,0,0-1.22,3.1c0,0.12,0,.24,0,0.36a1.5,1.5,0,0,1-1,1.9C197.42,326.55,196.93,325.67,196.33,325Z" transform="translate(-147.53 -265.21)"/><path d="M184.39,317.58L184,320.3l0.29,0,0.78-1a10.5,10.5,0,0,1,1.83,1,2.11,2.11,0,0,1,.69,1.26,1.31,1.31,0,0,0,1.54,1.41c1.43-.18,2.84-0.53,4.25-0.8l0-.39c-0.11-.08-0.23-0.15-0.33-0.23l-1.06-.9a3,3,0,0,1,1.29-.86c2.71,0.42,4.21-1.19,5.59-3.09a0.94,0.94,0,0,1,.81-0.21,17.49,17.49,0,0,1-5.9,6.24,11.19,11.19,0,0,1-7,1.94,4.39,4.39,0,0,1-4.18-5.07A2.18,2.18,0,0,1,184.39,317.58Z" transform="translate(-147.53 -265.21)"/><path d="M241,330.78a2.88,2.88,0,0,1,.47-0.52,53.73,53.73,0,0,1,6.06,3.55,5.21,5.21,0,0,1,.92,7,3.62,3.62,0,0,1-4,1.47,2.43,2.43,0,0,1-1.87-1.83,3,3,0,0,1,.66-3c0.86-.84,1.78-0.78,2.74.22a3.71,3.71,0,0,0-.9.19,1,1,0,0,0-.53.55,1.39,1.39,0,0,0,.37.63,5.43,5.43,0,0,1,.55.89,3.74,3.74,0,0,0,.29,1.11,4.76,4.76,0,0,0,1.52-.07l-0.89-1.32a4.69,4.69,0,0,0,1.83-.79,2.7,2.7,0,0,0-.21-3.14l-0.66,1.08a10.23,10.23,0,0,1-1.85-.72c-0.55-.35-1.42-0.91-1.39-1.33,0.13-2.35-1.51-3.14-3.15-4Z" transform="translate(-147.53 -265.21)"/><path d="M188.11,276.63c-0.39-.57-0.82-1.11-1.17-1.71a2.64,2.64,0,0,0-2.61-1.52c-1.15.06-1.58-.48-1.73-1.63A9.08,9.08,0,0,0,182,270l1.12-.57a2.65,2.65,0,0,0-3.11-.38c-0.45.3-.52,1.18-0.85,2l-1.14-1a3.61,3.61,0,0,0-.38.94,1.21,1.21,0,0,0,.23.85c0.93,0.08,1.88,0,2.37,1.07a2.72,2.72,0,0,0,.66-0.58,2.24,2.24,0,0,0,.11-0.82,1.74,1.74,0,0,1,0,3,3,3,0,0,1-3,.21,2.57,2.57,0,0,1-1.48-2.4,3.66,3.66,0,0,1,2.09-3.83,4.78,4.78,0,0,1,5.65.74,20.6,20.6,0,0,1,2.45,3.59c0.66,1.11,1.2,2.3,1.79,3.45Z" transform="translate(-147.53 -265.21)"/><path d="M234.23,329.07a2.19,2.19,0,0,1-2.18-2.37,6.27,6.27,0,0,1,2.18-5.36l-1.07-.94,3.43-1.43-1-.63a14.08,14.08,0,0,1,1.3-1.88,18.58,18.58,0,0,1,1.92-1.58,15.38,15.38,0,0,1,1.11,2,1.46,1.46,0,0,1-.21,1.22c-1.15,1.42-2.37,2.77-3.57,4.14a27.83,27.83,0,0,0-2,2.32A3.79,3.79,0,0,0,234.23,329.07Z" transform="translate(-147.53 -265.21)"/><path d="M203.7,278.78l-3.61,3.52-0.69-1.3-1.26,3.31-0.43.13-0.59-1c-1.74,1.8-3.7,2.73-6.16,2a2.15,2.15,0,0,1-1.63-2c3.09,1.29,4.24.94,6.54-1.61a41.41,41.41,0,0,1,3.73-3.52c0.67-.58,1.39-1.1,2.3-0.11A4.13,4.13,0,0,0,203.7,278.78Z" transform="translate(-147.53 -265.21)"/><path d="M238.74,311.57a3.3,3.3,0,0,1,.17,1.62,32.31,32.31,0,0,1-2.26,3.17l-2.06-2.45-0.74.34c-0.45-1.76.18-3.27,0.66-4.81l0,0a8,8,0,0,1,1.17-1.14c1.08-.7,2.72-0.8,3.38.77-1.49,1.07-1.55,1.49-.34,2.35Z" transform="translate(-147.53 -265.21)"/><path d="M208.57,283.24l-4.23,1-0.22-.34,0.31-.86-2.27-1.91c0.63-.86,1-1.76,2.19-1.76a0.52,0.52,0,0,0,.34-0.06c0.81-1.55,1.6-.49,2.3.07,1.22,1,1.53-.23,2.09-0.82a2.39,2.39,0,0,1,.44,3.86c-0.3.3-.64,0.56-1,0.84Z" transform="translate(-147.53 -265.21)"/><path d="M219.87,303.13a14.68,14.68,0,0,0,1.45,1.6c0.64,0.54,1.43.91,2.09,1.44a7.41,7.41,0,0,1,1.51,1.53,7.66,7.66,0,0,1,.65,1.76l-1,.52c1.1,0.62,1.17.61,2.58-.5,0,1.52-.52,2.37-1.74,2.66a3.08,3.08,0,0,1-3.67-1.75c-0.54-1.47-.76-3.07-1.16-4.6-0.22-.86-0.53-1.7-0.79-2.54Z" transform="translate(-147.53 -265.21)"/><path d="M208.67,290.72c-0.52.8-1.26,1.55-.42,2.65l0.48-1.11a13.62,13.62,0,0,1,2.11.84,2.29,2.29,0,0,1,1,1.19,4.56,4.56,0,0,0,2.1,2.9,2.12,2.12,0,0,1,1,.91c-1.9-.44-3.78-1-5.7-1.3a3.49,3.49,0,0,1-3.18-3.9C206.17,291.46,207.07,290.68,208.67,290.72Z" transform="translate(-147.53 -265.21)"/><path d="M214.5,312.64a3.28,3.28,0,0,0-.93.55c-0.84,1-2.17,1.76-1.24,3.54,0.48,0.91-.73,2.27-2,2.75a2.85,2.85,0,0,0,1.3.78,4.23,4.23,0,0,0,1.39-1.11,1.42,1.42,0,0,1-.7,2.26,3,3,0,0,1-3.52-.62,3.31,3.31,0,0,1,0-4.3,35,35,0,0,1,3.82-3.21c0.48-.39,1-0.71,1.53-1.07Z" transform="translate(-147.53 -265.21)"/><path d="M206.52,303.8c-0.89,1.1-1.8,2.18-2.65,3.31s-1.71,2.61-3.41,3a2.9,2.9,0,0,1-3.12-1,3.06,3.06,0,0,1-.27-3.38,1.53,1.53,0,0,1,2.19-.69,4.22,4.22,0,0,0-1.15,1.49,2.26,2.26,0,0,0,1,1.32c0.07-1.29,1.92-2.65,2.9-2a1.37,1.37,0,0,0,2-.29,16.77,16.77,0,0,1,1.48-1.38,3.34,3.34,0,0,1,1-.33Z" transform="translate(-147.53 -265.21)"/><path d="M212.21,298.6c-1.39.69-2.87,1.34-4.27,2.12a6.51,6.51,0,0,1-4.78,1.08,2.62,2.62,0,0,1-2.06-3.05,2.14,2.14,0,0,1,2.24-2.07c-0.86,1.46-.87,1.6-0.19,2.76v-1.53a7.08,7.08,0,0,1,1.8.18,2,2,0,0,1,1.23,1c0.28,1.09.82,0.92,1.59,0.66,1.3-.44,2.64-0.81,4-1.19A1,1,0,0,1,212.21,298.6Z" transform="translate(-147.53 -265.21)"/><path d="M188,308.57c0.17-1,.71-2.17-1-2.62l0.14,1.28a9,9,0,0,1-2.18.3c-1.59-.17-2,0.12-2,1.77,0,0.48,0,1,.07,1.45-1.42-1-1.62-3.9-.4-5.55,1.41-1.91,4.64-2.07,5.93-.29A2.62,2.62,0,0,1,188,308.57Z" transform="translate(-147.53 -265.21)"/><path d="M210.84,331.57h1.22c-0.25-1.24-.65-1.42-2.3-1.07,0.82-1.4,3-1.3,4.11.18a3.63,3.63,0,0,1,.19,3.74,3.82,3.82,0,0,1-3.31,2.39,4,4,0,0,1-3.5-1.18c0.94,0,1.62,0,2.3,0,1.17-.1,1.39-0.64,1.14-1.75A8.15,8.15,0,0,1,210.84,331.57Z" transform="translate(-147.53 -265.21)"/><path d="M219.65,305.65c-0.28,1.24-.54,2.49-0.86,3.73a10.58,10.58,0,0,1-.58,1.3c-0.29.71-.23,1.25,0.69,1.36a1.16,1.16,0,0,1,1,1.36c0,0.5.09,1,.16,1.67l-1.43.11c1,1.06,1.83.2,2.67-.3a2.16,2.16,0,0,1-2.18,2.35,2.59,2.59,0,0,1-2.9-2.08,7,7,0,0,1,1-4.79c0.82-1.5,1.47-3.1,2.19-4.66Z" transform="translate(-147.53 -265.21)"/><path d="M229.31,281.72a17.76,17.76,0,0,1,1.8,3.15c0.21,0.62-.26,1.47-0.46,2.36,2.22-1.82,3.45.42,5.08,1.1-1.94.39-3.82,0.75-5.7,1.18-0.49.11-.92,0.49-1.4,0.65a1,1,0,0,1-.84-0.08,1,1,0,0,1-.12-0.91A15.84,15.84,0,0,0,229.31,281.72Z" transform="translate(-147.53 -265.21)"/><path d="M190,278.08c-1.29-2.46-1.33-4.42.23-5a4.38,4.38,0,0,1-.07.92,3.59,3.59,0,0,0,2.05,4.51,11.85,11.85,0,0,1,1.56,1l-0.2.5a29.31,29.31,0,0,1-3-.87c-0.73-.29-1.33-0.88-2.05-1.21-0.56-.25-1.59-0.6-1.75-0.39-1,1.29-2.73,1-3.84,1.91-0.45-2,.49-3.32,2.53-3.15a14.65,14.65,0,0,1,3.56,1.11A4.23,4.23,0,0,1,190,278.08Z" transform="translate(-147.53 -265.21)"/><path d="M241,330.74a20.13,20.13,0,0,1,.34,2.12c0.12,2.08-1.05,3.37-3,3,0.15-.65.27-1.31,0.47-2a2.27,2.27,0,0,1,.61-1.23,1.4,1.4,0,0,0,.49-2.06c-0.5-1.11-1.21-2.14-1.68-3.27a13,13,0,0,1-.53-2.37l0.4-.25a7.61,7.61,0,0,1,.8,1c1.53,2.85,2.3,3.24,5.21,2.51,0.22,0.79.06,1.08-.81,1.18a5.09,5.09,0,0,1-3.92-1.15l1.64,2.51Z" transform="translate(-147.53 -265.21)"/><path d="M201.79,311.68l-1.19,1.88c-1.18,1.48-2.26,3.07-4.31,3.5a2.46,2.46,0,0,1-3.12-2.47,1.81,1.81,0,0,1,1.88-2l-0.39,1.73c0.61-.33,1.21-0.91,1.65-0.81s0.79,0.86,1.23,1.41c1.86-.65,2.94-2.29,4.21-3.94Z" transform="translate(-147.53 -265.21)"/><path d="M205.41,317.16l0.74-.29,0.71-.23c-1.33,1.36-3,2.37-3.47,4.38,1.62,0.7,1.87,1.55.54,2.75l1.59-.28a1.54,1.54,0,0,1-1.56,1.82,2.24,2.24,0,0,1-2.66-2c-0.24-1.91.72-3.28,2-4.48C204,318.27,204.72,317.73,205.41,317.16Z" transform="translate(-147.53 -265.21)"/><path d="M240.93,305.92c-0.46-.42-0.89-0.87-1.37-1.26a5.22,5.22,0,0,1-.94-0.5,7.11,7.11,0,0,1,.41-1.86,1.57,1.57,0,0,1,.65-0.35,2.58,2.58,0,0,1-1.16-.36,6.54,6.54,0,0,1-.57-1.55,6,6,0,0,1,2.29.48,9.21,9.21,0,0,1,1.64,2.37l-1.5-.55c1.3,1.43,3.46,2.31,2.84,4.77l-2.32-1.25Z" transform="translate(-147.53 -265.21)"/><path d="M210.71,274.19c1.91,0.07,3.33.32,3.95,2.1a1.62,1.62,0,0,0,1,.85L215.26,276c2.16,0.8,3.09,1.7,2.72,3.68-1.17.06-1.68-.35-1.82-1.2a11.34,11.34,0,0,1-1.84.53c-0.5.06-1.22,0.14-.87-0.87A1.57,1.57,0,0,0,213,277C212.33,276.14,211.6,275.29,210.71,274.19Z" transform="translate(-147.53 -265.21)"/><path d="M223.16,281.76a2.17,2.17,0,0,1-.8-0.65c-1.38-4.33-4.68-6.66-8.67-8.44v-1.14c4.95,1.71,8.46,4.7,9.76,9.87Z" transform="translate(-147.53 -265.21)"/><path d="M236,294.84c4.16,0,8.6,4.5,9.8,9.48-0.73.29-1,.07-1.37-0.7-1.57-3.54-3.7-6.59-7.58-8A3,3,0,0,1,236,294.84Z" transform="translate(-147.53 -265.21)"/><path d="M223.05,303.83a10.86,10.86,0,0,1-2-1.45c-1.46-1.67-1.61-2.81-.62-3.93a2.7,2.7,0,0,1,1.28-.77c1-.25,1.42.22,1.32,1.22a1.32,1.32,0,0,1-.09.47,3.56,3.56,0,0,0,.43,4.21Z" transform="translate(-147.53 -265.21)"/><path d="M214.54,294.57a3.43,3.43,0,0,0,4.1.39,1.5,1.5,0,0,1,1.39.15,2.09,2.09,0,0,1,.08,1.65,2.45,2.45,0,0,1-2.31,1.41,0.75,0.75,0,0,1-.53-0.13C216.41,296.92,214.41,296.75,214.54,294.57Z" transform="translate(-147.53 -265.21)"/><path d="M222.88,293.09a2,2,0,1,1,3.9-.08A2,2,0,1,1,222.88,293.09Z" transform="translate(-147.53 -265.21)"/><path d="M197.67,287.28a3.19,3.19,0,0,1,.4-1.46c1.08-1,.58-3.09,2.33-3.4a7.63,7.63,0,0,1,2.85.48,0.84,0.84,0,0,1,.18.72,1,1,0,0,1-.57.6c-2.91.93-3.11,1.05-4.85,3.16Z" transform="translate(-147.53 -265.21)"/><path d="M230,320.37c2.13-.73,2.75-2.6,3.34-4.47,0.17-.53.2-1.26,0.94-1.08a1.84,1.84,0,0,1,.87,1.09,2.62,2.62,0,0,1-.41,2.9,1.58,1.58,0,0,1-.68.62c-1.5-.32-2.37,2.09-4,0.92Z" transform="translate(-147.53 -265.21)"/><path d="M241.57,323.25c0.36,0.7.57,1.37-.3,1.84a1.62,1.62,0,0,1-2.22-.48c-0.32-.38-0.67-0.74-1-1.1h-0.41l2.61-5.23,0.46,0.09a5.31,5.31,0,0,1-.15,1.33c-0.22.59-.7,1.09-0.86,1.68a3,3,0,0,0,0,1.72C240.08,324.11,240.73,324.13,241.57,323.25Z" transform="translate(-147.53 -265.21)"/><path d="M194.95,279.47a7,7,0,0,0-.89-0.8,1.79,1.79,0,0,1-.67-2.39,1.06,1.06,0,0,1,1.64-.38,2.56,2.56,0,0,0-.34,1.29A1.73,1.73,0,0,0,196,278a10.69,10.69,0,0,0,2.53-.86c0.56-.23,1.07-0.74,1.76.11L195,279.95Z" transform="translate(-147.53 -265.21)"/><path d="M222.65,290.51a3.26,3.26,0,0,1,4.64-.15c1.38,1.34,1.5,3.17.09,5.2a3.75,3.75,0,0,1-.24-1.38,2.59,2.59,0,0,0-.57-3,2.39,2.39,0,0,0-2.84-.52A2.32,2.32,0,0,1,222.65,290.51Z" transform="translate(-147.53 -265.21)"/><path d="M222.39,290.91a3.28,3.28,0,0,1,.06,1.16,2.56,2.56,0,0,0,.67,2.84,2.33,2.33,0,0,0,2.63.57,5.13,5.13,0,0,1,1.58.09c-1.71,1.39-3.59,1.37-4.89.22a3.53,3.53,0,0,1-.44-4.84Z" transform="translate(-147.53 -265.21)"/><path d="M201,268.95a2,2,0,0,1,1.81-1.9,2.51,2.51,0,0,1,2.68.92,2.83,2.83,0,0,1,.28,2,3.47,3.47,0,0,1-1.33,1.09,20.77,20.77,0,0,0-1.17-2.9,2,2,0,0,0-1.38,0A3,3,0,0,0,201,268.95Z" transform="translate(-147.53 -265.21)"/><path d="M246.6,313.83a1.34,1.34,0,0,1,1.25-1.45,2.59,2.59,0,0,1,1.77.62,2.74,2.74,0,0,1-1.25,4.55,10.69,10.69,0,0,0,.86-1.17c0.45-.84.16-1.28-0.75-1.55A11,11,0,0,1,246.6,313.83Z" transform="translate(-147.53 -265.21)"/><path d="M223.15,282.51a2.15,2.15,0,0,1,.63.89c-0.19,2.73-.9,5.24-3.26,6.95a2.62,2.62,0,0,1-.88.23,2.06,2.06,0,0,1,.32-1c2.32-1.71,2.9-4.12,2.88-6.79Z" transform="translate(-147.53 -265.21)"/><path d="M235.11,294.8c-3.91.35-5.51,1.14-7.28,3.75-0.79-.1-0.87-0.45-0.41-1.07a7.81,7.81,0,0,1,7-3.23A1.72,1.72,0,0,1,235.11,294.8Z" transform="translate(-147.53 -265.21)"/><path d="M245.24,328.09l1.3-1.86a1.37,1.37,0,0,1,.32-0.49,8.52,8.52,0,0,1,2-.69,1.26,1.26,0,0,1,.68.85,3.17,3.17,0,0,1-1.18,1.68A13.62,13.62,0,0,1,245.24,328.09Z" transform="translate(-147.53 -265.21)"/><path d="M196.24,297.37a6.3,6.3,0,0,0,2.81,4.37,2.31,2.31,0,0,0,1.22,0c0.4,0,.8-0.13,1.21-0.2a2.65,2.65,0,0,1-.21,1.39,1.83,1.83,0,0,1-1.59.33,7.48,7.48,0,0,1-2.39-2,13,13,0,0,1-1.36-3.16,2.52,2.52,0,0,1,.13-1Z" transform="translate(-147.53 -265.21)"/><path d="M190.46,272.11a24.31,24.31,0,0,1,.61-3.36,1.35,1.35,0,0,1,1.94-.82,1.23,1.23,0,0,1,.39,1.86,3.74,3.74,0,0,1-.94,1C191.86,271.26,191.21,271.63,190.46,272.11Z" transform="translate(-147.53 -265.21)"/><path d="M221,322.43a0.79,0.79,0,0,1-.34.23,8,8,0,0,1-5.39-3,3.41,3.41,0,0,1-.44-2,1.6,1.6,0,0,1,.93-0.92,1.84,1.84,0,0,1,.9.36,5.79,5.79,0,0,0-.45,1.06,1.7,1.7,0,0,0,0,1.05c1,1.92,2.88,2.6,4.78,3.23Z" transform="translate(-147.53 -265.21)"/><path d="M187.85,268.69a2.55,2.55,0,0,1,2.32,3,1.64,1.64,0,0,1-1,1,1.69,1.69,0,0,1-1-.82,2.24,2.24,0,0,1-.1-1C187.94,270.15,187.89,269.45,187.85,268.69Z" transform="translate(-147.53 -265.21)"/><path d="M194.92,272.38l-1.7,1.06a2.7,2.7,0,0,1-1,.59,1.71,1.71,0,0,1-1.33-.38,1.49,1.49,0,0,1,.21-1.35A2.43,2.43,0,0,1,194.92,272.38Z" transform="translate(-147.53 -265.21)"/><path d="M245,323.5a2.51,2.51,0,0,1,.37,3.73,3.78,3.78,0,0,1-1.64.43,6.62,6.62,0,0,1-.1-1.72,4.79,4.79,0,0,1,.77-1A12.34,12.34,0,0,0,245,323.5Z" transform="translate(-147.53 -265.21)"/><path d="M248.73,330.79c-0.73-.05-1.47-0.09-2.21-0.16a2.77,2.77,0,0,1-1.24-.24,1.3,1.3,0,0,1-.55-1,1.46,1.46,0,0,1,.92-0.88A2.48,2.48,0,0,1,248.73,330.79Z" transform="translate(-147.53 -265.21)"/><path d="M226.82,317.71a2.75,2.75,0,0,1,2.16,2.16c0.12,0.56.95,1,1.39,1.38a2.9,2.9,0,0,1-3-.74A2.17,2.17,0,0,1,226.82,317.71Z" transform="translate(-147.53 -265.21)"/><path d="M197.67,290.19a3.42,3.42,0,0,1-.4-3.1,2.49,2.49,0,0,0,2,2.06c0.62,0.23,1,1.1,1.6,1.81a2.5,2.5,0,0,1-3.21-.78Z" transform="translate(-147.53 -265.21)"/><path d="M196.24,297.37L196,297l-0.41-4.22,0.3,0c0.35,1.51,0,3.3,1.66,4.35a2.56,2.56,0,0,1,.49-0.38,1.39,1.39,0,0,1,.85-0.23,1.16,1.16,0,0,1,.4.89,1.3,1.3,0,0,1-2,.9A7,7,0,0,1,196.24,297.37Z" transform="translate(-147.53 -265.21)"/><path d="M221,322.46c-0.3-.24-0.62-0.48-0.91-0.74-0.85-.75-0.76-2.28.18-2.58a1.39,1.39,0,0,1,1.07.18,0.94,0.94,0,0,1,0,.9c-0.83.79-.26,1.26,0.38,1.5,1,0.39,2.1.61,3.16,1.07l-3.88-.37Z" transform="translate(-147.53 -265.21)"/><path d="M197.65,290.17a15.07,15.07,0,0,0-.6,1.84,2.41,2.41,0,0,0,.91.42,6.24,6.24,0,0,0,1,.13,2.76,2.76,0,0,1-.67,1.25,1.49,1.49,0,0,1-2-1.36,6.4,6.4,0,0,1,.28-2.08c0.19-.78.68-0.35,1.1-0.18h0Z" transform="translate(-147.53 -265.21)"/><path d="M227.87,321.24a2.24,2.24,0,0,1-3,.7,2.43,2.43,0,0,1-.89-1.6c-0.13-.81.46-1.15,1.22-0.92a1,1,0,0,1,.37.79,3,3,0,0,1-.22.91,8,8,0,0,0,1.33.3A5,5,0,0,0,227.87,321.24Z" transform="translate(-147.53 -265.21)"/><path d="M228.9,304l0.39,0.58c-1.86,0-3.14-2.41-2.64-5.06l0.33-.12a3.76,3.76,0,0,1,.42,1.23,3.85,3.85,0,0,0,1.55,3.41Z" transform="translate(-147.53 -265.21)"/><path d="M213.47,288.41c1.25,1.77,3.18,2.15,5.18,2.38A3.55,3.55,0,0,1,213.47,288.41Z" transform="translate(-147.53 -265.21)"/><path d="M203.93,285.3a15.79,15.79,0,0,0-2,.85,1,1,0,0,0-.1.92c0.41,0.38.61,0.77,0.06,1a1.53,1.53,0,0,1-1.23-.25,1.14,1.14,0,0,1-.22-1c0.25-1.18,2.54-2.16,3.47-1.53Z" transform="translate(-147.53 -265.21)"/><path d="M231.16,317l1.5-2.39,0.21,0.09a20.28,20.28,0,0,1-1.16,2.66,1.17,1.17,0,0,1-1.86.26,2.47,2.47,0,0,1-.22-1.26c0.33,0.07.67,0.12,1,.21A2.45,2.45,0,0,1,231.16,317Z" transform="translate(-147.53 -265.21)"/><path d="M216.3,300.11c0.76-.46,1.21-0.95,1.56-0.88a1.38,1.38,0,0,1,.91,1,1.45,1.45,0,0,1-1,1C217.42,301.26,217,300.68,216.3,300.11Z" transform="translate(-147.53 -265.21)"/><path d="M233.6,311.46a9.57,9.57,0,0,1-.93,2.49,2.57,2.57,0,0,1-1.66.34,1.89,1.89,0,0,1-.29-0.9,0.72,0.72,0,0,1,.52-0.28c1.4,0.78,1.46-.41,1.79-1.19a1.22,1.22,0,0,1,.11-0.2A3.42,3.42,0,0,1,233.6,311.46Z" transform="translate(-147.53 -265.21)"/><path d="M238.74,311.57l-0.07-.11c-0.22-.65-0.33-1.34.51-1.54a1.4,1.4,0,0,1,1.12.52,1.07,1.07,0,0,1-.16,1A4.08,4.08,0,0,1,238.74,311.57Z" transform="translate(-147.53 -265.21)"/><path d="M203.89,285.33l2.55-1.18,0.14,0.28a4.29,4.29,0,0,0-1.12.61,2.69,2.69,0,0,0-.5,1.07,5.78,5.78,0,0,0-.15.93,3.41,3.41,0,0,1-1-.74,1.94,1.94,0,0,1,.15-1Z" transform="translate(-147.53 -265.21)"/><path d="M208.77,278.18a3.42,3.42,0,0,1-1.33.82,1.39,1.39,0,0,1-.88-0.94,1.21,1.21,0,0,1,.84-0.86A3.87,3.87,0,0,1,208.77,278.18Z" transform="translate(-147.53 -265.21)"/><path d="M208.54,283.28l1-.11a13,13,0,0,0-1.23,1.12,2.21,2.21,0,0,0-.37.89,2.55,2.55,0,0,1,0,.66,0.65,0.65,0,0,1-.64.09,1,1,0,0,1-.43-0.75,5,5,0,0,1,.86-1.19,10.38,10.38,0,0,1,.81-0.76Z" transform="translate(-147.53 -265.21)"/><path d="M234.49,309.44a6.19,6.19,0,0,1-1,1.33,3.13,3.13,0,0,1-1.41.38,0.86,0.86,0,0,1-.29-0.55,0.64,0.64,0,0,1,.29-0.42c1.43,0.52,1.59-.91,2.31-1.47,0.09-.07.19-0.12,0.45-0.29l-0.36,1.06Z" transform="translate(-147.53 -265.21)"/><path d="M230,320.36l-0.67-.45,1.82-1.56,0.2,0.15L230,320.37Z" transform="translate(-147.53 -265.21)"/><path d="M200.28,286.29l-1.75,2.1C198.14,287.68,198.78,286.9,200.28,286.29Z" transform="translate(-147.53 -265.21)"/></svg>